<svg xmlns="http://www.w3.org/2000/svg" viewBox="0 0 678 111"><g fill="#FFF"><path d="M143.16 79.23c3.364 0 6.35-.467 8.959-1.397 2.61-.924 4.806-2.269 6.59-4.024 1.784-1.75 3.132-3.889 4.048-6.414.912-2.522 1.371-5.388 1.371-8.6 0-3.1-.428-5.916-1.283-8.451-.856-2.535-2.152-4.71-3.893-6.527-1.739-1.812-3.921-3.221-6.545-4.221-2.627-1.004-5.708-1.503-9.247-1.503h-12.12V79.23h12.12zm-23.177-50.651h23.354c4.571 0 8.803.657 12.698 1.969 3.89 1.312 7.252 3.245 10.084 5.795 2.832 2.553 5.049 5.69 6.657 9.421 1.607 3.73 2.412 8.016 2.412 12.853 0 4.482-.693 8.571-2.08 12.274-1.387 3.702-3.427 6.873-6.125 9.51-2.699 2.638-6.016 4.687-9.955 6.148-3.935 1.462-8.44 2.191-13.513 2.191h-23.532V28.579zM204.43 80.78c1.887 0 3.56-.252 5.02-.756a8.85 8.85 0 003.715-2.41c1.019-1.106 1.794-2.521 2.323-4.244.53-1.728.796-3.828.796-6.308V43.224h10.795v24.152c0 4.038-.554 7.489-1.66 10.35-1.107 2.862-2.662 5.211-4.667 7.055-2.004 1.844-4.395 3.193-7.165 4.048-2.772.853-5.826 1.284-9.156 1.284-3.334 0-6.387-.43-9.158-1.284-2.773-.855-5.161-2.204-7.166-4.048-2.006-1.844-3.56-4.193-4.667-7.055-1.107-2.861-1.657-6.312-1.657-10.35V43.224h10.792v23.838c0 2.452.265 4.539.796 6.262.532 1.728 1.297 3.142 2.301 4.248 1.001 1.106 2.241 1.914 3.715 2.433 1.474.513 3.156.775 5.044.775M310.862 88.74H300.07V64.233c0-4.509-.812-7.814-2.432-9.906-1.623-2.096-3.924-3.143-6.903-3.143-1.71 0-3.273.29-4.688.864a10.817 10.817 0 00-3.693 2.456c-1.048 1.06-1.867 2.367-2.455 3.912-.59 1.55-.916 3.296-.973 5.244v25.08h-10.839V64.233c0-4.509-.81-7.814-2.433-9.906-1.622-2.096-3.922-3.143-6.9-3.143-1.739 0-3.34.295-4.799.883a10.13 10.13 0 00-3.737 2.592c-1.035 1.134-1.838 2.52-2.412 4.154-.575 1.639-.862 3.488-.862 5.551V88.74h-10.749V43.224h8.757l.752 4.203c.855-.771 1.807-1.49 2.854-2.172a20.746 20.746 0 013.429-1.77 23.519 23.519 0 013.959-1.19c1.4-.294 2.866-.443 4.4-.443 3.186 0 6.009.603 8.472 1.81a16.552 16.552 0 016.128 5.133 21.135 21.135 0 013.072-2.676 21.856 21.856 0 013.872-2.212 24.074 24.074 0 014.642-1.504c1.682-.37 3.495-.551 5.442-.551 3.009 0 5.685.495 8.028 1.48 2.349.99 4.318 2.419 5.929 4.29 1.607 1.873 2.83 4.183 3.67 6.925.84 2.744 1.26 5.868 1.26 9.378V88.74zM328.384 65.962c0 2.18.379 4.178 1.13 5.99.751 1.816 1.774 3.38 3.071 4.692a14.107 14.107 0 004.558 3.072c1.741.738 3.613 1.106 5.621 1.106 2.003 0 3.875-.359 5.616-1.083a13.828 13.828 0 004.557-3.053c1.298-1.312 2.32-2.88 3.072-4.711.751-1.825 1.13-3.833 1.13-6.013 0-2.152-.379-4.136-1.13-5.952-.752-1.812-1.774-3.367-3.072-4.666a14.204 14.204 0 00-4.58-3.053c-1.756-.737-3.618-1.105-5.593-1.105-2.008 0-3.88.358-5.621 1.082a13.828 13.828 0 00-4.558 3.054c-1.297 1.312-2.32 2.876-3.072 4.688-.75 1.816-1.129 3.8-1.129 5.952m-10.748.042c0-3.334.621-6.466 1.859-9.398 1.237-2.938 2.969-5.495 5.196-7.676 2.228-2.184 4.874-3.907 7.941-5.178 3.068-1.265 6.416-1.9 10.043-1.9 3.656 0 7.022.635 10.108 1.9 3.081 1.271 5.733 2.994 7.96 5.178 2.228 2.181 3.964 4.738 5.22 7.676 1.25 2.932 1.881 6.064 1.881 9.398 0 3.362-.621 6.503-1.857 9.422-1.243 2.917-2.979 5.47-5.22 7.652-2.242 2.184-4.903 3.902-7.984 5.153-3.086 1.252-6.467 1.883-10.155 1.883-3.627 0-6.965-.631-10.019-1.883-3.053-1.25-5.681-2.97-7.894-5.153-2.214-2.182-3.946-4.739-5.196-7.676-1.256-2.932-1.883-6.064-1.883-9.398M421.547 88.74h-10.842V64.453c0-2.413-.261-4.468-.793-6.149-.532-1.68-1.284-3.048-2.255-4.113a8.399 8.399 0 00-3.562-2.296c-1.4-.472-2.97-.711-4.711-.711-1.887 0-3.623.347-5.196 1.041a12.138 12.138 0 00-4.092 2.919c-1.15 1.256-2.04 2.74-2.676 4.468-.635 1.723-.952 3.617-.952 5.681V88.74H375.72V43.224h8.759l.794 4.599a23.128 23.128 0 013.188-2.32 25.65 25.65 0 013.782-1.906c1.34-.545 2.748-.97 4.224-1.284 1.47-.308 2.96-.461 4.468-.461 3.533 0 6.601.495 9.197 1.48 2.596.99 4.743 2.432 6.437 4.337 1.695 1.9 2.947 4.244 3.759 7.031.812 2.788 1.219 5.967 1.219 9.533V88.74zM438.62 65.962c0 2.18.383 4.188 1.148 6.013.767 1.83 1.816 3.399 3.143 4.71a14.147 14.147 0 004.645 3.054c1.77.724 3.67 1.083 5.705 1.083 2.003 0 3.894-.359 5.663-1.083a13.914 13.914 0 004.623-3.053c1.312-1.312 2.348-2.876 3.118-4.687.766-1.817 1.148-3.83 1.148-6.037 0-2.152-.382-4.136-1.148-5.952-.77-1.812-1.816-3.367-3.142-4.666a14.625 14.625 0 00-4.646-3.053c-1.769-.737-3.669-1.105-5.705-1.105-2.035 0-3.935.358-5.705 1.082a13.908 13.908 0 00-4.622 3.054c-1.312 1.312-2.348 2.876-3.1 4.688-.752 1.816-1.125 3.8-1.125 5.952m-10.752.042c0-3.334.579-6.466 1.727-9.398 1.149-2.938 2.778-5.5 4.889-7.699 2.105-2.195 4.65-3.932 7.628-5.196 2.979-1.27 6.284-1.905 9.912-1.905 3.273 0 6.177.546 8.712 1.638 2.535 1.092 4.733 2.479 6.592 4.16V26.412h10.748V88.74h-9.203l-.662-5.308c-.911.943-1.938 1.82-3.072 2.634a21.373 21.373 0 01-3.74 2.124 23.58 23.58 0 01-4.332 1.433 21.56 21.56 0 01-4.866.532c-3.628 0-6.942-.635-9.934-1.9-2.994-1.27-5.552-2.993-7.671-5.177-2.125-2.182-3.777-4.739-4.959-7.676-1.176-2.932-1.769-6.064-1.769-9.398M497.236 65.962c0 2.18.383 4.188 1.148 6.013.767 1.83 1.817 3.399 3.143 4.71a14.147 14.147 0 004.645 3.054c1.77.724 3.67 1.083 5.705 1.083 2.003 0 3.894-.359 5.663-1.083a13.914 13.914 0 004.623-3.053c1.312-1.312 2.348-2.876 3.118-4.687.766-1.817 1.148-3.83 1.148-6.037 0-2.152-.382-4.136-1.148-5.952-.77-1.812-1.816-3.367-3.142-4.666a14.625 14.625 0 00-4.646-3.053c-1.769-.737-3.669-1.105-5.705-1.105-2.035 0-3.935.358-5.705 1.082a13.908 13.908 0 00-4.622 3.054c-1.312 1.312-2.348 2.876-3.1 4.688-.752 1.816-1.125 3.8-1.125 5.952m-10.752.042c0-3.334.584-6.466 1.75-9.398 1.163-2.938 2.815-5.495 4.954-7.676 2.139-2.184 4.701-3.907 7.695-5.178 2.992-1.265 6.321-1.9 9.977-1.9 1.708 0 3.337.168 4.888.51 1.55.336 3.001.793 4.356 1.372a21.084 21.084 0 013.739 2.03 24.173 24.173 0 013.03 2.456l.616-4.996h9.203V88.74h-9.203l-.616-5a21.757 21.757 0 01-3.096 2.479 23.214 23.214 0 01-3.738 2.012 24.197 24.197 0 01-4.338 1.373c-1.545.336-3.174.51-4.884.51-3.628 0-6.942-.631-9.934-1.883-2.994-1.25-5.552-2.97-7.671-5.153-2.125-2.182-3.777-4.739-4.959-7.676-1.176-2.932-1.769-6.064-1.769-9.398M577.173 67.465l-22.914-30.216v51.492h-5.219V28.579h4.421l24.642 32.204 24.548-32.204h4.557v60.162h-5.22V37.295l-23.045 30.17zM641.23 47.071c-2.54 0-4.913.425-7.125 1.284-2.209.855-4.165 2.04-5.86 3.557a19.11 19.11 0 00-4.178 5.398c-1.092 2.082-1.77 4.328-2.035 6.746h38.17c-.265-2.418-.933-4.664-2.011-6.746a18.973 18.973 0 00-4.136-5.398 18.757 18.757 0 00-5.795-3.557c-2.18-.859-4.524-1.284-7.03-1.284m-24.24 19.24c0-3.273.615-6.345 1.858-9.221 1.236-2.876 2.945-5.374 5.13-7.498 2.18-2.124 4.74-3.796 7.671-5.018 2.936-1.224 6.111-1.84 9.534-1.84 3.394 0 6.569.616 9.533 1.84 2.965 1.222 5.528 2.894 7.699 5.018 2.166 2.124 3.876 4.622 5.13 7.498 1.252 2.876 1.878 5.948 1.878 9.221 0 .388-.014.7-.042.952-.028.252-.061.495-.089.728h-43.307c.206 2.685.887 5.113 2.035 7.279 1.15 2.166 2.61 4.01 4.38 5.528a19.536 19.536 0 005.97 3.52 19.521 19.521 0 006.86 1.237c1.797 0 3.515-.224 5.154-.663a18.799 18.799 0 004.575-1.905 18.23 18.23 0 003.829-2.964 18.007 18.007 0 002.895-3.847h5.532a22.473 22.473 0 01-3.498 5.486 23.019 23.019 0 01-5 4.356 24.474 24.474 0 01-6.256 2.876c-2.288.69-4.71 1.041-7.278 1.041-3.423 0-6.598-.612-9.534-1.835-2.932-1.224-5.49-2.904-7.67-5.042-2.186-2.139-3.895-4.646-5.131-7.522-1.243-2.876-1.859-5.952-1.859-9.225M84.223 30.375c-5.644-10.437-16.933-16.92-29.464-16.92a34.1 34.1 0 00-6.761.67c-7.838 1.58-15.019 6.671-19.21 13.618-4.063 6.734-4.895 14.37-2.34 21.502C29.945 59 39.383 65.553 49.937 65.553c3.22 0 6.389-.61 9.421-1.816 3.607-1.435 6.743-3.695 9.07-6.535l.214-.292c1.016-1.778-.939-3.462-4.006-1.358-2.845 1.952-6.193 3.926-11.68 4.457-10.578 1.023-18.252-5.07-20.032-14.72a18.916 18.916 0 01-.461-4.132c0-.524.04-1.04.083-1.555l.058-.683c.525-5.463 3.507-10.463 8.183-13.716 4.356-3.03 9.375-4.63 14.514-4.63 7.18 0 14.021 3.05 18.763 8.371 9.004 10.1 9.012 24.157.019 33.425-2.802 2.888-5.836 4.595-8.772 6.246-5.155 2.901-10.024 5.64-11.794 14.077-.66 3.142-.73 5.6-.83 9a202.365 202.365 0 01-.229 5.801l-.054.958h7.549l.035-3.129c.07-6.638.121-11.88 2.086-15.061 1.7-2.751 4.652-4.466 8.07-6.453 4.028-2.34 12.062-6.602 16.04-17.364 3.178-8.594 2.487-17.852-1.96-26.07"/><path d="M47.926 91.859c-.049-3.318-.085-5.715-.667-8.78-1.56-8.224-5.993-11.17-10.795-14.043-2.667-1.597-8.449-4.843-11.814-9.721-3.687-5.343-6.021-11.586-5.932-18.454.065-5.038 1.4-9.787 3.664-14.037 1.576-2.958-2.947-3.778-6.596 4.63-3.6 8.295-3.193 17.502-.36 25.047 3.372 8.976 12.387 15.603 16.159 17.889 3.195 1.935 5.954 3.607 7.521 6.29 1.818 3.11 1.801 8.23 1.78 14.715l-.005 3.056h7.227l-.038-.933c-.092-2.24-.12-4.065-.144-5.659"/></g></svg>