<svg xmlns="http://www.w3.org/2000/svg" viewBox="0 0 504 76">
  <g fill="#FFF" fill-rule="evenodd" transform="translate(7.661 3)">
    <path fill-rule="nonzero" d="M92.0591606 59C97.3076251 59 101.361226 58.5729706 104.219965 57.7189119 107.279708 56.8648532 110.205448 55.3454231 112.997184 53.1606218 118.558323 48.791019 121.338893 43.0708117 121.338893 36 121.338893 28.9490501 118.669993 23.2586356 113.332192 18.9287565 110.696793 16.7836788 107.759886 15.2642487 104.521472 14.3704663 101.506397 13.4568221 97.3969607 13 92.1931639 13L92.1931639 13 81.3388926 13 81.3388926 59 92.0591606 59zM92.809967 53L89.3388926 53 89.3388926 20 92.809967 20C99.3774601 20 104.347157 21.4023508 107.719058 24.2070524 111.465614 27.3499096 113.338893 31.4475588 113.338893 36.5 113.338893 41.5126582 111.443576 45.5804702 107.652942 48.7034358 105.801702 50.2151899 103.730077 51.3191682 101.438066 52.0153707 99.1460551 52.6717902 96.2700221 53 92.809967 53L92.809967 53zM144.838893 60C149.492739 60 153.326873 58.8473054 156.341296 56.5419162 158.165816 55.1214238 159.448268 53.5262808 160.188652 51.756487 160.955479 49.7771124 161.338893 47.4251497 161.338893 44.7005988L161.338893 44.7005988 161.338893 25 152.414614 25 152.414614 44.5259481C152.414614 50.161344 149.889373 52.9790419 144.838893 52.9790419 139.788412 52.9790419 137.263171 50.161344 137.263171 44.5259481L137.263171 44.5259481 137.263171 25 128.338893 25 128.338893 44.7005988C128.338893 47.8210246 128.709085 50.1729874 129.44947 51.756487 130.216296 53.5262808 131.525191 55.1214238 133.376152 56.5419162 136.390575 58.8473054 140.211489 60 144.838893 60zM177.77003 59L177.77003 41.4125874C177.77003 37.8461538 178.377815 35.2354312 179.593384 33.5804196 180.808952 31.9254079 182.744082 31.0979021 185.398773 31.0979021 189.59039 31.0979021 191.686198 34.1282051 191.686198 40.1888112L191.686198 59 201.159252 59 201.159252 41.4125874C201.159252 37.7995338 201.753064 35.1771562 202.940689 33.5454545 204.128314 31.9137529 206.021527 31.0979021 208.62033 31.0979021 210.855859 31.0979021 212.462645 31.7855478 213.440689 33.1608392 214.390789 34.5128205 214.865839 36.8205128 214.865839 40.0839161L214.865839 59 224.338893 59 224.338893 37.951049C224.338893 28.6503497 219.742086 24 210.548473 24 205.490589 24 201.480609 25.6783217 198.518533 29.034965 195.835899 25.6783217 192.189192 24 187.578414 24 185.510549 24 183.791986 24.2913753 182.422725 24.8741259 181.137296 25.4335664 179.586398 26.5058275 177.77003 28.0909091L177.77003 24.9440559 168.338893 24.9440559 168.338893 59 177.77003 59zM248.678642 60C253.925354 60 258.353009 58.2857143 261.961607 54.8571429 265.546464 51.4052478 267.338893 47.1253644 267.338893 42.0174927 267.338893 36.9562682 265.558334 32.6880466 261.997218 29.212828 258.38862 25.7376093 253.996576 24 248.821087 24 243.669339 24 239.301036 25.7259475 235.716178 29.1778426 232.131321 32.6297376 230.338893 36.8163265 230.338893 41.7376093 230.338893 46.9620991 232.09571 51.3002915 235.609345 54.7521866 239.12298 58.2507289 243.479412 60 248.678642 60zM248.319894 53C245.001529 53 242.329106 51.9909333 240.302623 49.9728 238.326803 47.9781333 237.338893 45.2677333 237.338893 41.8416 237.338893 38.6501333 238.352134 36.0453333 240.378616 34.0272 242.405099 32.0090667 245.052191 31 248.319894 31 251.638259 31 254.310683 32.0090667 256.337165 34.0272 258.338317 36.0218667 259.338893 38.6853333 259.338893 42.0176 259.338893 45.3498667 258.338317 48.0133333 256.337165 50.008 254.336014 52.0026667 251.66359 53 248.319894 53zM283.228046 59L283.228046 42.5664336C283.228046 38.3240093 283.831145 35.3519814 285.037343 33.6503497 286.269763 31.9254079 288.354387 31.0629371 291.291217 31.0629371 293.992051 31.0629371 295.853791 31.7156177 296.876437 33.020979 297.925305 34.3030303 298.449739 36.6223776 298.449739 39.979021L298.449739 39.979021 298.449739 59 307.338893 59 307.338893 38.1258741C307.338893 33.3240093 306.263803 29.8624709 304.113624 27.7412587 301.622564 25.2470862 298.148189 24 293.690502 24 289.809691 24 286.322206 25.3636364 283.228046 28.0909091L283.228046 28.0909091 283.228046 24.9440559 274.338893 24.9440559 274.338893 59 283.228046 59zM330.642933 60C334.828792 60 338.578623 58.4857309 341.892428 55.4571928L341.892428 55.4571928 341.892428 59.0215492 350.338893 59.0215492 350.338893 0 341.892428 0 341.892428 28.9341875C338.528792 25.6726849 334.71667 24.0419336 330.456064 24.0419336 325.547647 24.0419336 321.473909 25.7542225 318.234852 29.1788002 314.970879 32.5800815 313.338893 36.8200349 313.338893 41.8986605 313.338893 47.0937682 314.970879 51.4269074 318.234852 54.898078 321.523741 58.2993593 325.659768 60 330.642933 60zM331.647287 53C328.658236 53 326.180133 51.9557333 324.21298 49.8672 322.296922 47.8021333 321.338893 45.1269333 321.338893 41.8416 321.338893 38.7674667 322.322469 36.1861333 324.289623 34.0976 326.282323 32.0325333 328.760425 31 331.723929 31 334.866265 31 337.421009 32.0208 339.388163 34.0624 341.355316 36.1509333 342.338893 38.8026667 342.338893 42.0176 342.338893 45.2325333 341.355316 47.8842667 339.388163 49.9728 337.421009 51.9909333 334.840717 53 331.647287 53zM374.71768 60C378.704212 60 382.429128 58.483965 385.892428 55.451895L385.892428 55.451895 385.892428 59.0204082 394.338893 59.0204082 394.338893 24.9446064 385.892428 24.9446064 385.892428 28.8979592C382.528792 25.6326531 378.729128 24 374.493438 24 369.585021 24 365.498825 25.7026239 362.234852 29.1078717 358.970879 32.5131195 357.338893 36.7696793 357.338893 41.877551 357.338893 47.0787172 358.970879 51.4169096 362.234852 54.8921283 365.523741 58.2973761 369.684684 60 374.71768 60zM375.647287 53C372.658236 53 370.180133 51.9557333 368.21298 49.8672 366.296922 47.8021333 365.338893 45.1269333 365.338893 41.8416 365.338893 38.7674667 366.322469 36.1861333 368.289623 34.0976 370.282323 32.0325333 372.760425 31 375.723929 31 378.866265 31 381.421009 32.0208 383.388163 34.0624 385.355316 36.1509333 386.338893 38.8026667 386.338893 42.0176 386.338893 45.2325333 385.355316 47.8842667 383.388163 49.9728 381.421009 51.9909333 378.840717 53 375.647287 53zM407.502004 59L407.502004 20.567 424.145745 42.859 426.26404 42.859 442.907781 20.36 442.907781 59 447.204893 59 447.204893 10.7 443.513008 10.7 425.295677 36.511 406.896777 10.7 403.204893 10.7 403.204893 59 407.502004 59zM473.382893 59.915C476.280893 59.915 478.937393 59.409 481.352393 58.397 483.767393 57.385 485.779893 55.913 487.389893 53.981L487.389893 53.981 484.629893 50.807C483.249893 52.371 481.616893 53.5555 479.730893 54.3605 477.844893 55.1655 475.774893 55.568 473.520893 55.568 469.518893 55.568 466.206893 54.4065 463.584893 52.0835 460.962893 49.7605 459.513893 46.713 459.237893 42.941L459.237893 42.941 489.597893 42.941 489.666893 41.423C489.666893 37.835 488.907893 34.6495 487.389893 31.8665 485.871893 29.0835 483.778893 26.91 481.110893 25.346 478.442893 23.782 475.429893 23 472.071893 23 468.713893 23 465.689393 23.782 462.998393 25.346 460.307393 26.91 458.191393 29.095 456.650393 31.901 455.109393 34.707 454.338893 37.881 454.338893 41.423 454.338893 44.965 455.143893 48.139 456.753893 50.945 458.363893 53.751 460.606393 55.9475 463.481393 57.5345 466.356393 59.1215 469.656893 59.915 473.382893 59.915zM484.974893 39.284L459.237893 39.284C459.559893 35.696 460.905393 32.7865 463.274393 30.5555 465.643393 28.3245 468.575893 27.209 472.071893 27.209 475.613893 27.209 478.569393 28.3245 480.938393 30.5555 483.307393 32.7865 484.652893 35.696 484.974893 39.284L484.974893 39.284z"/>
    <path d="M35.3151237,68.0278966 C35.6035919,63.1417525 35.7478261,59.8360187 35.7478261,58.1106953 C35.7478261,55.5227101 38.5052554,51.6455793 42.6744887,48.8978586 C46.8437221,46.1501378 56.6495268,40.4356582 56.6495268,25.8509479 C56.6495268,11.2662377 47.2720268,1.42108547e-14 30.9472276,1.42108547e-14 C15.3028317,1.42108547e-14 8.89462288,13.9708072 8.89462288,21.7977713 C8.89462288,29.4327789 13.1886802,41.5329642 27.3892644,41.5329642 C41.5898486,41.5329642 44.4968246,29.0406805 40.772056,32.2548582 C37.0472873,35.4690358 32.3140862,37.1237233 27.9692332,37.1237233 C21.9990722,37.1237233 14.5575314,32.5698568 14.5575314,21.7977713 C14.5575314,11.6702877 24.5051872,5.51063249 30.9472276,5.51063249 C37.7742466,5.51063249 50.9146789,9.56438659 50.9146789,25.8509479 C50.9146789,36.8655452 42.589089,41.6591962 40.4030036,42.9743297 C38.2169183,44.2894633 32.2314512,48.0644638 30.6507555,52.2432702 C29.5969583,55.029141 29.2015118,60.2906832 29.4644159,68.0278966 L35.3151237,68.0278966 Z"/>
    <path d="M26.5748611,68.0278966 C26.5748611,64.032 26.5748611,60.1459033 26.5748611,56.3696064 C26.5748611,48.8563867 16.9834215,44.5757929 12.9390222,41.1315389 C8.89462288,37.6872848 4.46088339,31.6607943 4.46088339,24.7123449 C4.46088339,17.7638956 5.44480524,13.2404906 7.04040151,10.0068195 C8.63599778,6.77314845 1.04805054e-13,9.40949501 1.04805054e-13,26.9274414 C1.04805054e-13,37.5964155 7.84165239,43.8355977 10.3903373,46.1283494 C12.9390222,48.4211011 20.3086375,51.5175383 20.3086375,57.424509 C20.3086375,61.3624894 20.3086375,64.8969519 20.3086375,68.0278966 L26.5748611,68.0278966 Z"/>
  </g>
</svg>
