<svg xmlns="http://www.w3.org/2000/svg" viewBox="0 0 111 111">
  <g fill="#FFF" transform="matrix(1 0 0 -1 7.793 110.604)">
    <path d="M74.7096789,85.5389253 C67.6369403,98.5851724 53.4894619,106.688269 37.7864213,106.688269 C34.9087645,106.688269 32.0584569,106.407301 29.3135432,105.852235 C19.4918886,103.876098 10.4927076,97.5118774 5.23968329,88.8287399 C0.148752307,80.4109604 -0.893180894,70.8655656 2.30932954,61.9507862 C6.68918447,49.7580553 18.5173276,41.565674 31.7429419,41.565674 C35.7779316,41.565674 39.7488845,42.3292806 43.5490723,43.8358896 C48.0683408,45.6303339 51.9992706,48.4549915 54.9142822,52.0051691 L55.1831037,52.3704266 C56.4565035,54.5919411 54.0064262,56.6979469 50.1635471,54.0680933 C46.597494,51.6280486 42.4017451,49.1599072 35.5257864,48.4962001 C22.2701548,47.2174868 12.6526178,54.833573 10.4226673,66.897059 C10.0491189,68.5647558 9.8443343,70.2898949 9.8443343,72.0618618 C9.8443343,72.7168277 9.89569721,73.3624281 9.94839421,74.005531 L10.0211027,74.8584227 C10.6794818,81.6878006 14.4162998,87.9371371 20.2756732,92.0042945 C25.7354832,95.7904846 32.0244373,97.7922203 38.4641448,97.7922203 C47.4633259,97.7922203 56.0355945,93.9779335 61.9776821,87.3271259 C73.2615119,74.7017054 73.2708506,57.1306365 62.0010289,45.5460437 C58.4903411,41.9365508 54.688152,39.8030726 51.0093674,37.7382754 C44.5489813,34.1125488 38.4474685,30.689743 36.2288579,20.1422316 C35.401715,16.2149335 35.3129973,13.1430247 35.1895929,8.89355075 C35.1308924,6.85185523 35.0628532,4.51295878 34.902094,1.64084887 L34.8340549,0.44330392 L44.294168,0.44330392 L44.3381933,4.35499273 C44.4249099,12.6522685 44.4902809,19.2050497 46.951698,23.1816731 C49.0822579,26.6200882 52.7817211,28.7635563 57.0655207,31.247307 C62.1130934,34.1724885 72.1808897,39.499628 77.1670937,52.952341 C81.1487194,63.6952808 80.2828876,75.2673862 74.7096789,85.5389253" transform="translate(15.42 .98)"/>
    <path d="M44.0253465,8.74120405 C43.9639779,12.888281 43.9186184,15.8846409 43.1888649,19.7151614 C41.2337393,29.9966904 35.678541,33.6786105 29.6610766,37.2706209 C26.3184856,39.266113 19.0736479,43.3239047 14.8558862,49.4215189 C10.2358931,56.0997988 7.31087573,63.9031966 7.42227319,72.4889321 C7.50432043,78.7857208 9.1772836,84.7222471 12.0142502,90.0350261 C13.9887203,93.731931 8.32145754,94.7577737 3.74815791,84.2471002 C-0.763106006,73.8787835 -0.252812217,62.370364 3.29789868,52.9392292 C7.5223308,41.7186451 18.8201686,33.4351055 23.5468899,30.5779805 C27.5505282,28.1585401 31.007852,26.068768 32.9723163,22.7152675 C35.2502945,18.8285535 35.2289489,12.4268703 35.2036009,4.32127666 L35.1969304,0.501370489 L44.2534779,0.501370489 L44.2054502,1.66769686 C44.0900504,4.46862838 44.0553638,6.7488339 44.0253465,8.74120405" transform="translate(.62 .922)"/>
  </g>
</svg>
